<?xml version="1.0" encoding="UTF-8"?>
<svg xmlns="http://www.w3.org/2000/svg" xmlns:xlink="http://www.w3.org/1999/xlink" width="16pt" height="17pt" viewBox="0 0 16 17" version="1.1">
<g id="surface1">
<path style=" stroke:none;fill-rule:nonzero;fill:rgb(0%,0%,0%);fill-opacity:1;" d="M 15.429688 13.398438 L 12.796875 10.597656 C 13.277344 9.582031 13.597656 8.394531 13.597656 7.207031 C 13.597656 3.222656 10.5625 0 6.8125 0 C 3.0625 0 0.03125 3.222656 0.03125 7.207031 C 0.03125 11.191406 3.0625 14.414062 6.8125 14.414062 C 7.929688 14.414062 9.046875 14.074219 10.003906 13.566406 L 12.636719 16.363281 C 13.4375 17.210938 14.632812 17.210938 15.429688 16.363281 C 16.148438 15.515625 16.148438 14.246094 15.429688 13.398438 Z M 6.8125 12.71875 C 3.941406 12.71875 1.625 10.257812 1.625 7.207031 C 1.625 4.15625 3.941406 1.695312 6.8125 1.695312 C 9.6875 1.695312 12 4.15625 12 7.207031 C 12 10.257812 9.6875 12.71875 6.8125 12.71875 Z M 6.8125 12.71875 "/>
</g>
</svg>
